<?xml version="1.0" encoding="UTF-8"?>
<svg version="1.1" xmlns="http://www.w3.org/2000/svg" width="512" height="512">
<path d="M0 0 C1.07893115 -0.00872064 1.07893115 -0.00872064 2.17965889 -0.01761746 C4.60277527 -0.03227748 7.02488816 -0.01830507 9.44799805 -0.00457001 C11.19752014 -0.00917657 12.94703837 -0.01552783 14.69654846 -0.02347898 C19.51416062 -0.04022911 24.33145721 -0.03190021 29.14907074 -0.01953411 C34.34069494 -0.01050912 39.53226366 -0.02444064 44.72387695 -0.0354538 C54.89820818 -0.05327094 65.0724216 -0.04938482 75.24675751 -0.03780323 C83.51322906 -0.02878173 91.77966752 -0.02753934 100.04614258 -0.0318985 C101.22119889 -0.03251143 102.39625521 -0.03312436 103.60691929 -0.03375587 C105.99377824 -0.03503473 108.38063718 -0.03633158 110.76749611 -0.03764623 C133.16637097 -0.04906139 155.56518043 -0.03592365 177.96404457 -0.01444477 C197.19700975 0.00342705 216.42987836 0.0003232 235.6628418 -0.01811981 C257.97976777 -0.03951 280.29663637 -0.04796267 302.61357117 -0.03567076 C304.99181111 -0.03439652 307.37005106 -0.03313903 309.74829102 -0.0318985 C311.50365095 -0.03097285 311.50365095 -0.03097285 313.29447269 -0.03002849 C321.55415788 -0.02657003 329.81380677 -0.0324146 338.07348633 -0.04181671 C348.13478915 -0.05301751 358.1959671 -0.05003711 368.25725555 -0.02869374 C373.39392472 -0.01815746 378.53038544 -0.01410528 383.66705322 -0.02729034 C388.36485632 -0.03916683 393.0622568 -0.03273048 397.76002312 -0.01138014 C399.46386248 -0.00689386 401.16773552 -0.00922543 402.87155342 -0.01888329 C405.17967046 -0.03096785 407.48639072 -0.01865515 409.79443359 0 C411.07875778 0.00064941 412.36308197 0.00129882 413.68632507 0.00196791 C416.8972168 0.50336456 416.8972168 0.50336456 419.31037879 2.2580893 C421.0841887 4.76791796 421.39544123 5.89647443 421.38940811 8.93113327 C421.39737231 9.81691315 421.4053365 10.70269303 421.41354203 11.61531472 C421.40189067 12.58418233 421.3902393 13.55304993 421.37823486 14.55127716 C421.38165256 15.58375005 421.38507026 16.61622295 421.38859153 17.6799829 C421.39519639 21.15036115 421.37315051 24.61997127 421.35131836 28.09027863 C421.35019045 30.5735955 421.35082263 33.0569137 421.35308838 35.5402298 C421.35400016 40.89214004 421.34263226 46.24380976 421.32013702 51.59565735 C421.28763401 59.33349516 421.27721177 67.07123864 421.27218506 74.80913731 C421.26342972 87.363191 421.23680771 99.91714075 421.19897461 112.471138 C421.16226067 124.66644521 421.1339459 136.86172419 421.11694336 149.0570755 C421.11589247 149.80874749 421.11484157 150.56041948 421.11375883 151.33486941 C421.1085387 155.10577266 421.10348386 158.8766761 421.09851122 162.64757967 C421.05704176 193.93291688 420.98628962 225.21812494 420.8972168 256.50336456 C415.6172168 256.50336456 410.3372168 256.50336456 404.8972168 256.50336456 C404.8972168 198.42336456 404.8972168 140.34336456 404.8972168 80.50336456 C272.8972168 80.50336456 140.8972168 80.50336456 4.8972168 80.50336456 C4.8972168 201.94336456 4.8972168 323.38336456 4.8972168 448.50336456 C73.5372168 448.50336456 142.1772168 448.50336456 212.8972168 448.50336456 C212.8972168 443.22336456 212.8972168 437.94336456 212.8972168 432.50336456 C191.7772168 432.50336456 170.6572168 432.50336456 148.8972168 432.50336456 C148.8972168 427.22336456 148.8972168 421.94336456 148.8972168 416.50336456 C170.0172168 416.50336456 191.1372168 416.50336456 212.8972168 416.50336456 C212.8972168 411.22336456 212.8972168 405.94336456 212.8972168 400.50336456 C191.7772168 400.50336456 170.6572168 400.50336456 148.8972168 400.50336456 C148.8972168 395.22336456 148.8972168 389.94336456 148.8972168 384.50336456 C170.0172168 384.50336456 191.1372168 384.50336456 212.8972168 384.50336456 C212.8972168 379.22336456 212.8972168 373.94336456 212.8972168 368.50336456 C211.10058594 368.52431183 209.30395508 368.54525909 207.45288086 368.56684113 C201.51376099 368.63136723 195.57474036 368.67731475 189.63537979 368.71061325 C186.03463394 368.73147969 182.43426764 368.75977877 178.83374023 368.80512238 C175.35833766 368.84861581 171.88329992 368.87250878 168.40764618 368.88287354 C166.43775896 368.89385071 164.46801832 368.92507156 162.49835205 368.9565506 C160.69693756 368.95700378 160.69693756 368.95700378 158.85913086 368.95746613 C157.2736142 368.97078979 157.2736142 368.97078979 155.65606689 368.98438263 C152.8972168 368.50336456 152.8972168 368.50336456 150.5569458 367.00428009 C148.20036153 363.453328 148.33804708 360.15528596 148.37963867 356.03461456 C148.37262939 355.18214142 148.36562012 354.32966827 148.35839844 353.45136261 C148.34080111 350.63503137 148.3524472 347.81970593 148.3659668 345.00336456 C148.36327238 343.04568031 148.35939038 341.08799736 148.35437012 339.13031769 C148.34847272 335.0279745 148.35704587 330.92597975 148.37573242 326.82367706 C148.39852204 321.56415828 148.38540027 316.30545593 148.36144257 311.0459671 C148.34699117 307.00362746 148.35158757 302.96148151 148.36195374 298.91913605 C148.36462284 296.9798447 148.36134482 295.04053579 148.35203552 293.10126495 C148.34188078 290.39107406 148.35735552 287.68220681 148.37963867 284.97211456 C148.37154175 284.16991486 148.36344482 283.36771515 148.35510254 282.54120636 C148.40512642 279.2585679 148.6818776 276.88436649 150.30847168 274.00641632 C154.36189623 271.65295678 158.22693626 271.94658871 162.8347168 271.98578644 C164.34751221 271.97527252 164.34751221 271.97527252 165.89086914 271.9645462 C169.22659794 271.94693238 172.56147928 271.95860146 175.8972168 271.97211456 C178.21362471 271.96942064 180.53003151 271.96553905 182.84643555 271.96051788 C187.70201378 271.95461822 192.55729775 271.96320118 197.4128418 271.98188019 C203.64086326 272.0046696 209.86819525 271.99154908 216.09619141 271.96759033 C220.87969164 271.95314524 225.66302807 271.95773251 230.4465332 271.9681015 C232.74308351 271.97077233 235.03964863 271.96748656 237.33618164 271.95818329 C240.5444282 271.94803929 243.75155386 271.96348973 246.9597168 271.98578644 C247.91152832 271.97768951 248.86333984 271.96959259 249.84399414 271.96125031 C256.2509028 272.04385918 256.2509028 272.04385918 259.4899292 274.34668732 C261.44310917 277.33994812 261.35247355 279.46424316 261.2878418 283.01898956 C261.27785156 284.14595245 261.26786133 285.27291534 261.25756836 286.43402863 C261.22115234 287.85940948 261.18473633 289.28479034 261.1472168 290.75336456 C261.0647168 295.29086456 260.9822168 299.82836456 260.8972168 304.50336456 C271.4572168 304.50336456 282.0172168 304.50336456 292.8972168 304.50336456 C292.73921386 295.46821179 292.73921386 295.46821179 292.53686523 286.43402863 C292.526875 285.30706573 292.51688477 284.18010284 292.5065918 283.01898956 C292.48564453 281.86688995 292.46469727 280.71479034 292.44311523 279.52777863 C293.00552576 275.78200356 293.98675496 274.85076171 296.8972168 272.50336456 C299.25231934 272 299.25231934 272 301.90698242 271.99542999 C302.91639893 271.9841507 303.92581543 271.9728714 304.96582031 271.96125031 C306.06724365 271.96934723 307.16866699 271.97744415 308.3034668 271.98578644 C309.4680542 271.97877716 310.6326416 271.97176788 311.83251953 271.9645462 C315.68766013 271.94692024 319.54206854 271.95860616 323.3972168 271.97211456 C326.07235633 271.96942099 328.74747349 271.96554603 331.42260742 271.96051788 C337.0314123 271.95324259 342.64000643 271.96282585 348.2487793 271.98188019 C354.73139586 272.00364899 361.21350921 271.99659752 367.69611359 271.97457457 C373.26398269 271.95641697 378.83170039 271.95386391 384.39958954 271.96432924 C387.7241735 271.97056234 391.04846931 271.96983258 394.37304688 271.95818329 C398.07936837 271.94804708 401.78471787 271.96347972 405.4909668 271.98578644 C406.59239014 271.97768951 407.69381348 271.96959259 408.82861328 271.96125031 C410.34273804 271.97816925 410.34273804 271.97816925 411.88745117 271.99542999 C412.76348999 271.9969381 413.63952881 271.9984462 414.54211426 272 C417.70088876 272.67513627 418.91180299 274.00632855 420.8972168 276.50336456 C421.35131836 279.52777863 421.35131836 279.52777863 421.2878418 283.01898956 C421.26850586 284.8945755 421.26850586 284.8945755 421.2487793 286.80805206 C421.19850586 288.76098175 421.19850586 288.76098175 421.1472168 290.75336456 C421.12916992 292.07078644 421.11112305 293.38820831 421.0925293 294.74555206 C421.04537951 297.99888764 420.97957723 301.25076081 420.8972168 304.50336456 C421.64001892 304.49448212 422.38282104 304.48559967 423.14813232 304.47644806 C430.15171585 304.39626713 437.15514015 304.3353827 444.1590538 304.29611588 C447.75979965 304.27524944 451.36016595 304.24695036 454.96069336 304.20160675 C458.43609593 304.15811331 461.91113367 304.13422035 465.38678741 304.12385559 C467.35667463 304.11287841 469.32641527 304.08165756 471.29608154 304.05017853 C473.09749603 304.04972534 473.09749603 304.04972534 474.93530273 304.049263 C475.99231384 304.04038055 477.04932495 304.03149811 478.1383667 304.0223465 C481.73148028 304.6488222 482.69227044 305.61583841 484.8972168 308.50336456 C485.29039233 311.12363689 485.43845032 313.32471459 485.40515137 315.94281769 C485.41139133 316.69478676 485.41763129 317.44675583 485.42406034 318.22151184 C485.44002352 320.74286443 485.42737369 323.2632547 485.41479492 325.78461456 C485.42021458 327.59150507 485.42733636 329.39839116 485.43603516 331.20526886 C485.45429001 336.11434486 485.44719206 341.02308508 485.43451881 345.93216705 C485.42440235 351.06593491 485.43378072 356.19967372 485.44006348 361.33344269 C485.44734383 369.95524007 485.43774199 378.57690047 485.41870117 387.19867706 C485.39693171 397.17125425 485.40398281 407.14350435 485.42600679 417.11607361 C485.44414973 425.67328698 485.44672453 434.23040179 485.43625212 442.78762817 C485.43001111 447.90069186 485.42919826 453.01360173 485.44239807 458.12665558 C485.45393984 462.93334032 485.44596149 467.73960272 485.42282104 472.54624176 C485.41752499 474.31192066 485.41906301 476.077635 485.4278717 477.84329987 C485.43877581 480.25065269 485.42512725 482.65664567 485.40515137 485.06391144 C485.4185357 486.1162434 485.4185357 486.1162434 485.43219042 487.18983459 C485.3833417 490.21714781 485.01759368 492.29064722 483.52025604 494.93658447 C479.32940117 497.439844 475.21293262 497.0535184 470.4206543 497.01129913 C469.34200104 497.0175391 468.26334778 497.02377906 467.15200806 497.03020811 C463.52519087 497.04620664 459.89903938 497.0335065 456.2722168 497.02094269 C453.67716071 497.02636073 451.0821077 497.03348159 448.48706055 497.04218292 C442.16286116 497.05998365 435.83885149 497.05612134 429.51464462 497.04453236 C424.37555126 497.03550438 419.23651112 497.03427127 414.09741211 497.03862762 C413.00091434 497.03954702 413.00091434 497.03954702 411.88226509 497.04048499 C410.39732614 497.04176388 408.9123872 497.04306073 407.42744827 497.04437536 C393.4981777 497.0557857 379.56901237 497.04266037 365.63975906 497.02117389 C353.68385893 497.00330247 341.72811413 497.00640645 329.7722168 497.02484894 C315.89331504 497.04624767 302.01450555 497.05468703 288.1355896 497.04239988 C286.65606691 497.04112567 285.1765442 497.03986818 283.69702148 497.03862762 C282.96903917 497.03801052 282.24105686 497.03739342 281.49101448 497.03675762 C276.35718702 497.03330171 271.22341802 497.03913822 266.08959961 497.04854584 C259.18177547 497.06092585 252.27425016 497.05213102 245.36645508 497.02896881 C242.82674651 497.02366633 240.28701331 497.0252216 237.74731445 497.03401947 C234.28913176 497.04489726 230.83190081 497.03130422 227.3737793 497.01129913 C225.85453354 497.02468346 225.85453354 497.02468346 224.30459595 497.03833818 C217.64178848 496.96321265 217.64178848 496.96321265 214.2668457 494.87884521 C212.45831834 491.74214027 212.44089892 489.6008476 212.5065918 485.98773956 C212.51948242 484.73734894 212.53237305 483.48695831 212.5456543 482.19867706 C212.59592773 480.24574738 212.59592773 480.24574738 212.6472168 478.25336456 C212.66526367 476.93594269 212.68331055 475.61852081 212.7019043 474.26117706 C212.74905409 471.00784149 212.81485636 467.75596831 212.8972168 464.50336456 C211.76708286 464.50705173 210.63694893 464.51073891 209.47256851 464.51453781 C181.99879422 464.60325876 154.52503847 464.66903082 127.05115128 464.71061325 C113.76507996 464.73125569 100.47912494 464.75940844 87.19311523 464.80512238 C75.61568317 464.84493859 64.03831954 464.87078514 52.46082091 464.87971854 C46.3282078 464.8849421 40.19579052 464.89725443 34.06324005 464.92628479 C28.29474189 464.95337136 22.5265208 464.96182319 16.75796509 464.95579529 C14.63750454 464.95689855 12.51703502 464.9648924 10.39662933 464.98018646 C7.50750437 465.00000841 4.61943362 464.99533212 1.73028564 464.98438263 C0.88592839 464.996034 0.04157113 465.00768536 -0.82837272 465.0196898 C-4.18455708 464.9851697 -6.52640932 464.90832964 -9.31682372 462.9477613 C-11.72265264 459.65496523 -11.65720964 456.82632443 -11.60614777 452.9008255 C-11.61196153 452.12751011 -11.61777529 451.35419472 -11.62376523 450.55744553 C-11.63843304 447.95056437 -11.62444885 445.34461479 -11.61071777 442.73773956 C-11.61532402 440.85622423 -11.62167506 438.97471248 -11.62962675 437.09320831 C-11.64638121 431.91075321 -11.63804598 426.72859135 -11.62568188 421.54613495 C-11.61665867 415.96187058 -11.63058752 410.37765785 -11.64160156 404.79340363 C-11.6594206 393.84904408 -11.65553173 382.90479404 -11.643951 371.96043015 C-11.63493025 363.06848245 -11.63368678 354.17656552 -11.63804626 345.28461456 C-11.6386592 344.02074669 -11.63927213 342.75687881 -11.63990363 341.45471191 C-11.64118249 338.88746896 -11.64247934 336.32022602 -11.643794 333.75298309 C-11.65488407 310.34746994 -11.64336859 286.94202716 -11.62242361 263.53652763 C-11.60344055 242.1608579 -11.60513904 220.78528347 -11.62426758 199.40961456 C-11.64567671 175.40508247 -11.65411099 151.40060996 -11.64181852 127.39606476 C-11.64054428 124.83808137 -11.6392868 122.28009797 -11.63804626 119.72211456 C-11.63742916 118.46342308 -11.63681206 117.2047316 -11.63617626 115.90789795 C-11.6327175 107.0230405 -11.63856301 98.13821679 -11.64796448 89.25336456 C-11.65916418 78.43083072 -11.65618718 67.60841297 -11.6348415 56.78589249 C-11.62430376 51.26037707 -11.62025556 45.73505546 -11.63343811 40.20954132 C-11.64531152 35.15646728 -11.63888326 30.10376766 -11.6175279 25.05072784 C-11.61304032 23.21768313 -11.61537604 21.38460712 -11.62503105 19.55158234 C-11.63710851 17.06923293 -11.62480948 14.58818388 -11.60614777 12.10590363 C-11.61551243 11.38597355 -11.6248771 10.66604347 -11.63452554 9.92429733 C-11.58615279 6.72844217 -11.26981652 4.76047934 -9.51524687 2.05966616 C-6.21475669 -0.06950918 -3.91989673 0.00198207 0 0 Z M4.8972168 16.50336456 C4.8972168 32.34336456 4.8972168 48.18336456 4.8972168 64.50336456 C136.8972168 64.50336456 268.8972168 64.50336456 404.8972168 64.50336456 C404.8972168 48.66336456 404.8972168 32.82336456 404.8972168 16.50336456 C272.8972168 16.50336456 140.8972168 16.50336456 4.8972168 16.50336456 Z M164.8972168 288.50336456 C164.8972168 309.62336456 164.8972168 330.74336456 164.8972168 352.50336456 C180.7372168 352.50336456 196.5772168 352.50336456 212.8972168 352.50336456 C213.10724467 338.15823074 213.10724467 338.15823074 213.28515625 323.81269073 C213.31743832 322.01555029 213.35081092 320.21842895 213.38549805 318.42133331 C213.39174194 317.48664215 213.39798584 316.55195099 213.40441895 315.58893585 C213.42435913 314.69597809 213.44429932 313.80302032 213.46484375 312.88300323 C213.47594681 312.1080098 213.48704987 311.33301636 213.49848938 310.53453827 C214.00274823 307.96577254 214.82850589 307.07004265 216.8972168 305.50336456 C219.80810547 305.07099152 219.80810547 305.07099152 223.31518555 304.99164581 C224.56879883 304.95619659 225.82241211 304.92074738 227.11401367 304.88422394 C228.4243457 304.86166534 229.73467773 304.83910675 231.0847168 304.81586456 C232.42003692 304.7826879 233.75532511 304.7481979 235.09057617 304.71234894 C238.35915505 304.62974947 241.62817323 304.56488453 244.8972168 304.50336456 C244.8972168 299.22336456 244.8972168 293.94336456 244.8972168 288.50336456 C218.4972168 288.50336456 192.0972168 288.50336456 164.8972168 288.50336456 Z M308.8972168 288.50336456 C308.8972168 293.78336456 308.8972168 299.06336456 308.8972168 304.50336456 C340.5772168 304.50336456 372.2572168 304.50336456 404.8972168 304.50336456 C404.8972168 299.22336456 404.8972168 293.94336456 404.8972168 288.50336456 C373.2172168 288.50336456 341.5372168 288.50336456 308.8972168 288.50336456 Z M228.8972168 320.50336456 C228.8972168 336.34336456 228.8972168 352.18336456 228.8972168 368.50336456 C308.0972168 368.50336456 387.2972168 368.50336456 468.8972168 368.50336456 C468.8972168 352.66336456 468.8972168 336.82336456 468.8972168 320.50336456 C389.6972168 320.50336456 310.4972168 320.50336456 228.8972168 320.50336456 Z M276.8972168 384.50336456 C276.8972168 389.78336456 276.8972168 395.06336456 276.8972168 400.50336456 C282.1772168 400.50336456 287.4572168 400.50336456 292.8972168 400.50336456 C292.8972168 395.22336456 292.8972168 389.94336456 292.8972168 384.50336456 C287.6172168 384.50336456 282.3372168 384.50336456 276.8972168 384.50336456 Z M228.8972168 384.50336456 C228.8972168 416.18336456 228.8972168 447.86336456 228.8972168 480.50336456 C308.0972168 480.50336456 387.2972168 480.50336456 468.8972168 480.50336456 C468.8972168 448.82336456 468.8972168 417.14336456 468.8972168 384.50336456 C458.3372168 384.50336456 447.7772168 384.50336456 436.8972168 384.50336456 C436.68730375 393.58275778 436.68730375 393.58275778 436.50927734 402.66278839 C436.45960815 404.35697906 436.45960815 404.35697906 436.40893555 406.08539581 C436.38275146 407.24273224 436.35656738 408.40006866 436.32958984 409.59247589 C435.84511372 412.85414097 435.42773884 413.52937651 432.8972168 415.50336456 C429.84859155 415.8018445 427.00861584 415.92358301 423.9597168 415.90180206 C423.08323486 415.90467224 422.20675293 415.90754242 421.30371094 415.91049957 C419.45108392 415.91254055 417.59843537 415.90700834 415.74584961 415.89447784 C412.90779501 415.8784244 410.07116453 415.89432511 407.2331543 415.91352081 C405.43367198 415.91153839 403.63419056 415.90769472 401.8347168 415.90180206 C400.98466064 415.90787476 400.13460449 415.91394745 399.25878906 415.92020416 C393.24211929 415.84826705 393.24211929 415.84826705 389.8972168 412.50336456 C389.5672168 403.26336456 389.2372168 394.02336456 388.8972168 384.50336456 C362.4972168 384.50336456 336.0972168 384.50336456 308.8972168 384.50336456 C308.5672168 393.74336456 308.2372168 402.98336456 307.8972168 412.50336456 C304.47660385 415.92397751 303.1850128 415.86461492 298.53564453 415.92020416 C297.2605603 415.91109512 297.2605603 415.91109512 295.9597168 415.90180206 C295.08323486 415.90467224 294.20675293 415.90754242 293.30371094 415.91049957 C291.45108392 415.91254055 289.59843537 415.90700834 287.74584961 415.89447784 C284.90779501 415.8784244 282.07116453 415.89432511 279.2331543 415.91352081 C277.43367198 415.91153839 275.63419056 415.90769472 273.8347168 415.90180206 C272.98466064 415.90787476 272.13460449 415.91394745 271.25878906 415.92020416 C265.34087257 415.84944778 265.34087257 415.84944778 263.17643738 414.16103363 C261.19534849 411.59385341 261.45783834 409.28283656 261.38549805 406.08539581 C261.35238525 404.95593536 261.31927246 403.82647491 261.28515625 402.66278839 C261.26026123 401.22830353 261.23536621 399.79381866 261.2097168 398.31586456 C261.1065918 393.75773956 261.0034668 389.19961456 260.8972168 384.50336456 C250.3372168 384.50336456 239.7772168 384.50336456 228.8972168 384.50336456 Z M404.8972168 384.50336456 C404.8972168 389.78336456 404.8972168 395.06336456 404.8972168 400.50336456 C410.1772168 400.50336456 415.4572168 400.50336456 420.8972168 400.50336456 C420.8972168 395.22336456 420.8972168 389.94336456 420.8972168 384.50336456 C415.6172168 384.50336456 410.3372168 384.50336456 404.8972168 384.50336456 Z " fill="#000000" transform="translate(19.102783203125,7.496635437011719)"/>
<path d="M0 0 C1.00853027 -0.00700928 2.01706055 -0.01401855 3.05615234 -0.02124023 C6.39188114 -0.03885406 9.72676248 -0.02718497 13.0625 -0.01367188 C15.37890791 -0.0163658 17.69531472 -0.02024739 20.01171875 -0.02526855 C24.86729698 -0.03116822 29.72258096 -0.02258526 34.578125 -0.00390625 C40.80614646 0.01888316 47.03347845 0.00576265 53.26147461 -0.01819611 C58.04497485 -0.0326412 62.82831127 -0.02805393 67.61181641 -0.01768494 C69.90836671 -0.0150141 72.20493183 -0.01829988 74.50146484 -0.02760315 C77.7097114 -0.03774714 80.91683706 -0.02229671 84.125 0 C85.55271729 -0.01214539 85.55271729 -0.01214539 87.00927734 -0.02453613 C90.81241265 0.02450042 93.32646443 0.09022838 96.65124512 2.02062988 C98.68024412 5.61055935 98.62059758 8.97187829 98.58007812 12.98632812 C98.5870874 13.83880127 98.59409668 14.69127441 98.60131836 15.56958008 C98.61891568 18.38591132 98.6072696 21.20123676 98.59375 24.01757812 C98.59644442 25.97526238 98.60032642 27.93294533 98.60534668 29.890625 C98.61124408 33.99296819 98.60267093 38.09496294 98.58398438 42.19726562 C98.56119475 47.45678441 98.57431653 52.71548676 98.59827423 57.97497559 C98.61272563 62.01731523 98.60812923 66.05946118 98.59776306 70.10180664 C98.59509396 72.04109799 98.59837197 73.9804069 98.60768127 75.91967773 C98.61783602 78.62986863 98.60236128 81.33873587 98.58007812 84.04882812 C98.58817505 84.85102783 98.59627197 85.65322754 98.60461426 86.47973633 C98.55459038 89.76237479 98.2778392 92.1365762 96.65124512 95.01452637 C92.59782057 97.36798591 88.73278054 97.07435398 84.125 97.03515625 C83.11646973 97.04216553 82.10793945 97.0491748 81.06884766 97.05639648 C77.73311886 97.07401031 74.39823752 97.06234122 71.0625 97.04882812 C68.74609209 97.05152205 66.42968528 97.05540364 64.11328125 97.0604248 C59.25770302 97.06632447 54.40241904 97.05774151 49.546875 97.0390625 C43.31885354 97.01627309 37.09152155 97.0293936 30.86352539 97.05335236 C26.08002515 97.06779745 21.29668873 97.06321018 16.51318359 97.05284119 C14.21663329 97.05017035 11.92006817 97.05345613 9.62353516 97.0627594 C6.4152886 97.07290339 3.20816294 97.05745296 0 97.03515625 C-1.42771729 97.04730164 -1.42771729 97.04730164 -2.88427734 97.05969238 C-6.68741265 97.01065583 -9.20146443 96.94492787 -12.52624512 95.01452637 C-14.55524412 91.4245969 -14.49559758 88.06327796 -14.45507812 84.04882812 C-14.4620874 83.19635498 -14.46909668 82.34388184 -14.47631836 81.46557617 C-14.49391568 78.64924493 -14.4822696 75.83391949 -14.46875 73.01757812 C-14.47144442 71.05989387 -14.47532642 69.10221092 -14.48034668 67.14453125 C-14.48624408 63.04218806 -14.47767093 58.94019331 -14.45898438 54.83789062 C-14.43619475 49.57837184 -14.44931653 44.31966949 -14.47327423 39.06018066 C-14.48772563 35.01784102 -14.48312923 30.97569507 -14.47276306 26.93334961 C-14.47009396 24.99405826 -14.47337197 23.05474935 -14.48268127 21.11547852 C-14.49283602 18.40528762 -14.47736128 15.69642038 -14.45507812 12.98632812 C-14.46317505 12.18412842 -14.47127197 11.38192871 -14.47961426 10.55541992 C-14.42959038 7.27278146 -14.1528392 4.89858005 -12.52624512 2.02062988 C-8.47282057 -0.33282966 -4.60778054 -0.03919773 0 0 Z M2.0625 16.51757812 C2.0625 21.46757812 2.0625 26.41757812 2.0625 31.51757812 C9.52118849 30.4520512 10.25518473 30.3248934 15.0625 25.51757812 C17.38307845 22.14219129 17.0625 20.98155224 17.0625 16.51757812 C12.1125 16.51757812 7.1625 16.51757812 2.0625 16.51757812 Z M34.0625 16.51757812 C33.4025 20.14757812 32.7425 23.77757812 32.0625 27.51757812 C27.95818292 37.09431798 22.73490056 42.73741123 13.0625 46.76757812 C9.46057604 47.66805911 5.7466077 48.05706466 2.0625 48.51757812 C2.0625 54.78757812 2.0625 61.05757813 2.0625 67.51757812 C7.08841316 63.20965256 11.72339478 58.94197713 16.31835938 54.22265625 C19.57206534 50.91403541 21.01779007 49.66167605 25.6875 49.01757812 C30.54127996 49.04410151 32.93367169 51.4355272 36.30078125 54.69335938 C36.88214844 55.29535156 37.46351562 55.89734375 38.0625 56.51757812 C38.63355469 57.08863281 39.20460937 57.6596875 39.79296875 58.24804688 C40.21191406 58.66699219 40.63085938 59.0859375 41.0625 59.51757812 C44.19655668 58.13160946 46.28084182 56.52686656 48.6640625 54.07617188 C49.31890625 53.41037109 49.97375 52.74457031 50.6484375 52.05859375 C51.65777344 51.01735352 51.65777344 51.01735352 52.6875 49.95507812 C54.03161869 48.57659276 55.37787153 47.20018412 56.7265625 45.82617188 C57.61529053 44.91049438 57.61529053 44.91049438 58.52197266 43.97631836 C61.32156111 41.32536099 64.01488255 41.00845476 67.8359375 41.02929688 C71.47697427 41.82776985 73.60435179 44.13217173 76.203125 46.69335938 C78.31004405 48.84070206 78.31004405 48.84070206 82.0625 51.51757812 C82.0625 39.96757812 82.0625 28.41757812 82.0625 16.51757812 C66.2225 16.51757812 50.3825 16.51757812 34.0625 16.51757812 Z M62.6796875 63.70507812 C61.32230469 65.09726562 61.32230469 65.09726562 59.9375 66.51757812 C59.02742188 67.44570313 58.11734375 68.37382812 57.1796875 69.33007812 C56.48101562 70.05195313 55.78234375 70.77382813 55.0625 71.51757812 C56.65689227 75.43108643 58.68001086 77.97524152 62.0625 80.51757812 C65.52289307 81.12012676 68.8762 80.99080039 72.375 80.83007812 C73.77202148 80.79624023 73.77202148 80.79624023 75.19726562 80.76171875 C77.4873396 80.7029989 79.77407875 80.6209467 82.0625 80.51757812 C81.87727977 74.81933236 77.97354581 71.90868365 74.125 68.20507812 C73.47853516 67.55990234 72.83207031 66.91472656 72.16601562 66.25 C67.83483384 61.21514048 67.83483384 61.21514048 62.6796875 63.70507812 Z M22.6796875 71.66992188 C21.32230469 73.04857422 21.32230469 73.04857422 19.9375 74.45507812 C19.02742188 75.37160156 18.11734375 76.288125 17.1796875 77.23242188 C14.94922783 79.12063815 14.94922783 79.12063815 15.0625 80.51757812 C22.3225 80.51757812 29.5825 80.51757812 37.0625 80.51757812 C32.29459107 74.77841049 32.29459107 74.77841049 27.0625 69.51757812 C24.77469806 69.29414217 24.77469806 69.29414217 22.6796875 71.66992188 Z " fill="#000000" transform="translate(53.9375,279.482421875)"/>
<path d="M0 0 C1.00853027 -0.00700928 2.01706055 -0.01401855 3.05615234 -0.02124023 C6.39188114 -0.03885406 9.72676248 -0.02718497 13.0625 -0.01367188 C15.37890791 -0.0163658 17.69531472 -0.02024739 20.01171875 -0.02526855 C24.86729698 -0.03116822 29.72258096 -0.02258526 34.578125 -0.00390625 C40.80614646 0.01888316 47.03347845 0.00576265 53.26147461 -0.01819611 C58.04497485 -0.0326412 62.82831127 -0.02805393 67.61181641 -0.01768494 C69.90836671 -0.0150141 72.20493183 -0.01829988 74.50146484 -0.02760315 C77.7097114 -0.03774714 80.91683706 -0.02229671 84.125 0 C85.55271729 -0.01214539 85.55271729 -0.01214539 87.00927734 -0.02453613 C90.81241265 0.02450042 93.32646443 0.09022838 96.65124512 2.02062988 C98.68024412 5.61055935 98.62059758 8.97187829 98.58007812 12.98632812 C98.5870874 13.83880127 98.59409668 14.69127441 98.60131836 15.56958008 C98.61891568 18.38591132 98.6072696 21.20123676 98.59375 24.01757812 C98.59644442 25.97526238 98.60032642 27.93294533 98.60534668 29.890625 C98.61124408 33.99296819 98.60267093 38.09496294 98.58398438 42.19726562 C98.56119475 47.45678441 98.57431653 52.71548676 98.59827423 57.97497559 C98.61272563 62.01731523 98.60812923 66.05946118 98.59776306 70.10180664 C98.59509396 72.04109799 98.59837197 73.9804069 98.60768127 75.91967773 C98.61783602 78.62986863 98.60236128 81.33873587 98.58007812 84.04882812 C98.58817505 84.85102783 98.59627197 85.65322754 98.60461426 86.47973633 C98.55459038 89.76237479 98.2778392 92.1365762 96.65124512 95.01452637 C92.59782057 97.36798591 88.73278054 97.07435398 84.125 97.03515625 C83.11646973 97.04216553 82.10793945 97.0491748 81.06884766 97.05639648 C77.73311886 97.07401031 74.39823752 97.06234122 71.0625 97.04882812 C68.74609209 97.05152205 66.42968528 97.05540364 64.11328125 97.0604248 C59.25770302 97.06632447 54.40241904 97.05774151 49.546875 97.0390625 C43.31885354 97.01627309 37.09152155 97.0293936 30.86352539 97.05335236 C26.08002515 97.06779745 21.29668873 97.06321018 16.51318359 97.05284119 C14.21663329 97.05017035 11.92006817 97.05345613 9.62353516 97.0627594 C6.4152886 97.07290339 3.20816294 97.05745296 0 97.03515625 C-1.42771729 97.04730164 -1.42771729 97.04730164 -2.88427734 97.05969238 C-6.68741265 97.01065583 -9.20146443 96.94492787 -12.52624512 95.01452637 C-14.55524412 91.4245969 -14.49559758 88.06327796 -14.45507812 84.04882812 C-14.4620874 83.19635498 -14.46909668 82.34388184 -14.47631836 81.46557617 C-14.49391568 78.64924493 -14.4822696 75.83391949 -14.46875 73.01757812 C-14.47144442 71.05989387 -14.47532642 69.10221092 -14.48034668 67.14453125 C-14.48624408 63.04218806 -14.47767093 58.94019331 -14.45898438 54.83789062 C-14.43619475 49.57837184 -14.44931653 44.31966949 -14.47327423 39.06018066 C-14.48772563 35.01784102 -14.48312923 30.97569507 -14.47276306 26.93334961 C-14.47009396 24.99405826 -14.47337197 23.05474935 -14.48268127 21.11547852 C-14.49283602 18.40528762 -14.47736128 15.69642038 -14.45507812 12.98632812 C-14.46317505 12.18412842 -14.47127197 11.38192871 -14.47961426 10.55541992 C-14.42959038 7.27278146 -14.1528392 4.89858005 -12.52624512 2.02062988 C-8.47282057 -0.33282966 -4.60778054 -0.03919773 0 0 Z M2.0625 16.51757812 C2.0625 21.46757813 2.0625 26.41757813 2.0625 31.51757812 C9.52118849 30.4520512 10.25518473 30.3248934 15.0625 25.51757812 C17.38307845 22.14219129 17.0625 20.98155224 17.0625 16.51757812 C12.1125 16.51757812 7.1625 16.51757812 2.0625 16.51757812 Z M34.0625 16.51757812 C33.4025 20.14757812 32.7425 23.77757813 32.0625 27.51757812 C27.95818292 37.09431798 22.73490056 42.73741123 13.0625 46.76757812 C9.46057604 47.66805911 5.7466077 48.05706466 2.0625 48.51757812 C2.0625 54.78757813 2.0625 61.05757812 2.0625 67.51757812 C7.08841316 63.20965256 11.72339478 58.94197713 16.31835938 54.22265625 C19.57206534 50.91403541 21.01779007 49.66167605 25.6875 49.01757812 C30.54127996 49.04410151 32.93367169 51.4355272 36.30078125 54.69335938 C36.88214844 55.29535156 37.46351563 55.89734375 38.0625 56.51757812 C38.63355469 57.08863281 39.20460938 57.6596875 39.79296875 58.24804688 C40.21191406 58.66699219 40.63085938 59.0859375 41.0625 59.51757812 C44.19655668 58.13160946 46.28084182 56.52686656 48.6640625 54.07617188 C49.31890625 53.41037109 49.97375 52.74457031 50.6484375 52.05859375 C51.65777344 51.01735352 51.65777344 51.01735352 52.6875 49.95507812 C54.03161869 48.57659276 55.37787153 47.20018412 56.7265625 45.82617188 C57.61529053 44.91049438 57.61529053 44.91049438 58.52197266 43.97631836 C61.32156111 41.32536099 64.01488255 41.00845476 67.8359375 41.02929688 C71.47697427 41.82776985 73.60435179 44.13217173 76.203125 46.69335938 C78.31004405 48.84070206 78.31004405 48.84070206 82.0625 51.51757812 C82.0625 39.96757812 82.0625 28.41757813 82.0625 16.51757812 C66.2225 16.51757812 50.3825 16.51757812 34.0625 16.51757812 Z M62.6796875 63.70507812 C61.32230469 65.09726563 61.32230469 65.09726563 59.9375 66.51757812 C59.02742188 67.44570312 58.11734375 68.37382812 57.1796875 69.33007812 C56.48101562 70.05195313 55.78234375 70.77382812 55.0625 71.51757812 C56.65689227 75.43108643 58.68001086 77.97524152 62.0625 80.51757812 C65.52289307 81.12012676 68.8762 80.99080039 72.375 80.83007812 C73.77202148 80.79624023 73.77202148 80.79624023 75.19726562 80.76171875 C77.4873396 80.7029989 79.77407875 80.6209467 82.0625 80.51757812 C81.87727977 74.81933236 77.97354581 71.90868365 74.125 68.20507812 C73.47853516 67.55990234 72.83207031 66.91472656 72.16601562 66.25 C67.83483384 61.21514048 67.83483384 61.21514048 62.6796875 63.70507812 Z M22.6796875 71.66992188 C21.32230469 73.04857422 21.32230469 73.04857422 19.9375 74.45507812 C19.02742188 75.37160156 18.11734375 76.288125 17.1796875 77.23242188 C14.94922783 79.12063815 14.94922783 79.12063815 15.0625 80.51757812 C22.3225 80.51757812 29.5825 80.51757812 37.0625 80.51757812 C32.29459107 74.77841049 32.29459107 74.77841049 27.0625 69.51757812 C24.77469806 69.29414217 24.77469806 69.29414217 22.6796875 71.66992188 Z " fill="#000000" transform="translate(309.9375,103.482421875)"/>
<path d="M0 0 C1.00853027 -0.00700928 2.01706055 -0.01401855 3.05615234 -0.02124023 C6.39188114 -0.03885406 9.72676248 -0.02718497 13.0625 -0.01367188 C15.37890791 -0.0163658 17.69531472 -0.02024739 20.01171875 -0.02526855 C24.86729698 -0.03116822 29.72258096 -0.02258526 34.578125 -0.00390625 C40.80614646 0.01888316 47.03347845 0.00576265 53.26147461 -0.01819611 C58.04497485 -0.0326412 62.82831127 -0.02805393 67.61181641 -0.01768494 C69.90836671 -0.0150141 72.20493183 -0.01829988 74.50146484 -0.02760315 C77.7097114 -0.03774714 80.91683706 -0.02229671 84.125 0 C85.55271729 -0.01214539 85.55271729 -0.01214539 87.00927734 -0.02453613 C90.81241265 0.02450042 93.32646443 0.09022838 96.65124512 2.02062988 C98.68024412 5.61055935 98.62059758 8.97187829 98.58007812 12.98632812 C98.5870874 13.83880127 98.59409668 14.69127441 98.60131836 15.56958008 C98.61891568 18.38591132 98.6072696 21.20123676 98.59375 24.01757812 C98.59644442 25.97526238 98.60032642 27.93294533 98.60534668 29.890625 C98.61124408 33.99296819 98.60267093 38.09496294 98.58398438 42.19726562 C98.56119475 47.45678441 98.57431653 52.71548676 98.59827423 57.97497559 C98.61272563 62.01731523 98.60812923 66.05946118 98.59776306 70.10180664 C98.59509396 72.04109799 98.59837197 73.9804069 98.60768127 75.91967773 C98.61783602 78.62986863 98.60236128 81.33873587 98.58007812 84.04882812 C98.58817505 84.85102783 98.59627197 85.65322754 98.60461426 86.47973633 C98.55459038 89.76237479 98.2778392 92.1365762 96.65124512 95.01452637 C92.59782057 97.36798591 88.73278054 97.07435398 84.125 97.03515625 C83.11646973 97.04216553 82.10793945 97.0491748 81.06884766 97.05639648 C77.73311886 97.07401031 74.39823752 97.06234122 71.0625 97.04882812 C68.74609209 97.05152205 66.42968528 97.05540364 64.11328125 97.0604248 C59.25770302 97.06632447 54.40241904 97.05774151 49.546875 97.0390625 C43.31885354 97.01627309 37.09152155 97.0293936 30.86352539 97.05335236 C26.08002515 97.06779745 21.29668873 97.06321018 16.51318359 97.05284119 C14.21663329 97.05017035 11.92006817 97.05345613 9.62353516 97.0627594 C6.4152886 97.07290339 3.20816294 97.05745296 0 97.03515625 C-1.42771729 97.04730164 -1.42771729 97.04730164 -2.88427734 97.05969238 C-6.68741265 97.01065583 -9.20146443 96.94492787 -12.52624512 95.01452637 C-14.55524412 91.4245969 -14.49559758 88.06327796 -14.45507812 84.04882812 C-14.4620874 83.19635498 -14.46909668 82.34388184 -14.47631836 81.46557617 C-14.49391568 78.64924493 -14.4822696 75.83391949 -14.46875 73.01757812 C-14.47144442 71.05989387 -14.47532642 69.10221092 -14.48034668 67.14453125 C-14.48624408 63.04218806 -14.47767093 58.94019331 -14.45898438 54.83789062 C-14.43619475 49.57837184 -14.44931653 44.31966949 -14.47327423 39.06018066 C-14.48772563 35.01784102 -14.48312923 30.97569507 -14.47276306 26.93334961 C-14.47009396 24.99405826 -14.47337197 23.05474935 -14.48268127 21.11547852 C-14.49283602 18.40528762 -14.47736128 15.69642038 -14.45507812 12.98632812 C-14.46317505 12.18412842 -14.47127197 11.38192871 -14.47961426 10.55541992 C-14.42959038 7.27278146 -14.1528392 4.89858005 -12.52624512 2.02062988 C-8.47282057 -0.33282966 -4.60778054 -0.03919773 0 0 Z M2.0625 16.51757812 C2.0625 21.46757813 2.0625 26.41757813 2.0625 31.51757812 C9.52118849 30.4520512 10.25518473 30.3248934 15.0625 25.51757812 C17.38307845 22.14219129 17.0625 20.98155224 17.0625 16.51757812 C12.1125 16.51757812 7.1625 16.51757812 2.0625 16.51757812 Z M34.0625 16.51757812 C33.4025 20.14757812 32.7425 23.77757813 32.0625 27.51757812 C27.95818292 37.09431798 22.73490056 42.73741123 13.0625 46.76757812 C9.46057604 47.66805911 5.7466077 48.05706466 2.0625 48.51757812 C2.0625 54.78757813 2.0625 61.05757812 2.0625 67.51757812 C7.08841316 63.20965256 11.72339478 58.94197713 16.31835938 54.22265625 C19.57206534 50.91403541 21.01779007 49.66167605 25.6875 49.01757812 C30.54127996 49.04410151 32.93367169 51.4355272 36.30078125 54.69335938 C36.88214844 55.29535156 37.46351563 55.89734375 38.0625 56.51757812 C38.63355469 57.08863281 39.20460937 57.6596875 39.79296875 58.24804688 C40.21191406 58.66699219 40.63085938 59.0859375 41.0625 59.51757812 C44.19655668 58.13160946 46.28084182 56.52686656 48.6640625 54.07617188 C49.31890625 53.41037109 49.97375 52.74457031 50.6484375 52.05859375 C51.65777344 51.01735352 51.65777344 51.01735352 52.6875 49.95507812 C54.03161869 48.57659276 55.37787153 47.20018412 56.7265625 45.82617188 C57.61529053 44.91049438 57.61529053 44.91049438 58.52197266 43.97631836 C61.32156111 41.32536099 64.01488255 41.00845476 67.8359375 41.02929688 C71.47697427 41.82776985 73.60435179 44.13217173 76.203125 46.69335938 C78.31004405 48.84070206 78.31004405 48.84070206 82.0625 51.51757812 C82.0625 39.96757812 82.0625 28.41757813 82.0625 16.51757812 C66.2225 16.51757812 50.3825 16.51757812 34.0625 16.51757812 Z M62.6796875 63.70507812 C61.32230469 65.09726563 61.32230469 65.09726563 59.9375 66.51757812 C59.02742188 67.44570312 58.11734375 68.37382812 57.1796875 69.33007812 C56.48101562 70.05195313 55.78234375 70.77382812 55.0625 71.51757812 C56.65689227 75.43108643 58.68001086 77.97524152 62.0625 80.51757812 C65.52289307 81.12012676 68.8762 80.99080039 72.375 80.83007812 C73.77202148 80.79624023 73.77202148 80.79624023 75.19726562 80.76171875 C77.4873396 80.7029989 79.77407875 80.6209467 82.0625 80.51757812 C81.87727977 74.81933236 77.97354581 71.90868365 74.125 68.20507812 C73.47853516 67.55990234 72.83207031 66.91472656 72.16601562 66.25 C67.83483384 61.21514048 67.83483384 61.21514048 62.6796875 63.70507812 Z M22.6796875 71.66992188 C21.32230469 73.04857422 21.32230469 73.04857422 19.9375 74.45507812 C19.02742188 75.37160156 18.11734375 76.288125 17.1796875 77.23242188 C14.94922783 79.12063815 14.94922783 79.12063815 15.0625 80.51757812 C22.3225 80.51757812 29.5825 80.51757812 37.0625 80.51757812 C32.29459107 74.77841049 32.29459107 74.77841049 27.0625 69.51757812 C24.77469806 69.29414217 24.77469806 69.29414217 22.6796875 71.66992188 Z " fill="#000000" transform="translate(181.9375,103.482421875)"/>
<path d="M0 0 C1.00853027 -0.00700928 2.01706055 -0.01401855 3.05615234 -0.02124023 C6.39188114 -0.03885406 9.72676248 -0.02718497 13.0625 -0.01367188 C15.37890791 -0.0163658 17.69531472 -0.02024739 20.01171875 -0.02526855 C24.86729698 -0.03116822 29.72258096 -0.02258526 34.578125 -0.00390625 C40.80614646 0.01888316 47.03347845 0.00576265 53.26147461 -0.01819611 C58.04497485 -0.0326412 62.82831127 -0.02805393 67.61181641 -0.01768494 C69.90836671 -0.0150141 72.20493183 -0.01829988 74.50146484 -0.02760315 C77.7097114 -0.03774714 80.91683706 -0.02229671 84.125 0 C85.55271729 -0.01214539 85.55271729 -0.01214539 87.00927734 -0.02453613 C90.81241265 0.02450042 93.32646443 0.09022838 96.65124512 2.02062988 C98.68024412 5.61055935 98.62059758 8.97187829 98.58007812 12.98632812 C98.5870874 13.83880127 98.59409668 14.69127441 98.60131836 15.56958008 C98.61891568 18.38591132 98.6072696 21.20123676 98.59375 24.01757812 C98.59644442 25.97526238 98.60032642 27.93294533 98.60534668 29.890625 C98.61124408 33.99296819 98.60267093 38.09496294 98.58398438 42.19726562 C98.56119475 47.45678441 98.57431653 52.71548676 98.59827423 57.97497559 C98.61272563 62.01731523 98.60812923 66.05946118 98.59776306 70.10180664 C98.59509396 72.04109799 98.59837197 73.9804069 98.60768127 75.91967773 C98.61783602 78.62986863 98.60236128 81.33873587 98.58007812 84.04882812 C98.58817505 84.85102783 98.59627197 85.65322754 98.60461426 86.47973633 C98.55459038 89.76237479 98.2778392 92.1365762 96.65124512 95.01452637 C92.59782057 97.36798591 88.73278054 97.07435398 84.125 97.03515625 C83.11646973 97.04216553 82.10793945 97.0491748 81.06884766 97.05639648 C77.73311886 97.07401031 74.39823752 97.06234122 71.0625 97.04882812 C68.74609209 97.05152205 66.42968528 97.05540364 64.11328125 97.0604248 C59.25770302 97.06632447 54.40241904 97.05774151 49.546875 97.0390625 C43.31885354 97.01627309 37.09152155 97.0293936 30.86352539 97.05335236 C26.08002515 97.06779745 21.29668873 97.06321018 16.51318359 97.05284119 C14.21663329 97.05017035 11.92006817 97.05345613 9.62353516 97.0627594 C6.4152886 97.07290339 3.20816294 97.05745296 0 97.03515625 C-1.42771729 97.04730164 -1.42771729 97.04730164 -2.88427734 97.05969238 C-6.68741265 97.01065583 -9.20146443 96.94492787 -12.52624512 95.01452637 C-14.55524412 91.4245969 -14.49559758 88.06327796 -14.45507812 84.04882812 C-14.4620874 83.19635498 -14.46909668 82.34388184 -14.47631836 81.46557617 C-14.49391568 78.64924493 -14.4822696 75.83391949 -14.46875 73.01757812 C-14.47144442 71.05989387 -14.47532642 69.10221092 -14.48034668 67.14453125 C-14.48624408 63.04218806 -14.47767093 58.94019331 -14.45898438 54.83789062 C-14.43619475 49.57837184 -14.44931653 44.31966949 -14.47327423 39.06018066 C-14.48772563 35.01784102 -14.48312923 30.97569507 -14.47276306 26.93334961 C-14.47009396 24.99405826 -14.47337197 23.05474935 -14.48268127 21.11547852 C-14.49283602 18.40528762 -14.47736128 15.69642038 -14.45507812 12.98632812 C-14.46317505 12.18412842 -14.47127197 11.38192871 -14.47961426 10.55541992 C-14.42959038 7.27278146 -14.1528392 4.89858005 -12.52624512 2.02062988 C-8.47282057 -0.33282966 -4.60778054 -0.03919773 0 0 Z M2.0625 16.51757812 C2.0625 21.46757813 2.0625 26.41757813 2.0625 31.51757812 C9.52118849 30.4520512 10.25518473 30.3248934 15.0625 25.51757812 C17.38307845 22.14219129 17.0625 20.98155224 17.0625 16.51757812 C12.1125 16.51757812 7.1625 16.51757812 2.0625 16.51757812 Z M34.0625 16.51757812 C33.4025 20.14757812 32.7425 23.77757813 32.0625 27.51757812 C27.95818292 37.09431798 22.73490056 42.73741123 13.0625 46.76757812 C9.46057604 47.66805911 5.7466077 48.05706466 2.0625 48.51757812 C2.0625 54.78757813 2.0625 61.05757812 2.0625 67.51757812 C7.08841316 63.20965256 11.72339478 58.94197713 16.31835938 54.22265625 C19.57206534 50.91403541 21.01779007 49.66167605 25.6875 49.01757812 C30.54127996 49.04410151 32.93367169 51.4355272 36.30078125 54.69335938 C36.88214844 55.29535156 37.46351562 55.89734375 38.0625 56.51757812 C38.63355469 57.08863281 39.20460937 57.6596875 39.79296875 58.24804688 C40.21191406 58.66699219 40.63085938 59.0859375 41.0625 59.51757812 C44.19655668 58.13160946 46.28084182 56.52686656 48.6640625 54.07617188 C49.31890625 53.41037109 49.97375 52.74457031 50.6484375 52.05859375 C51.65777344 51.01735352 51.65777344 51.01735352 52.6875 49.95507812 C54.03161869 48.57659276 55.37787153 47.20018412 56.7265625 45.82617188 C57.61529053 44.91049438 57.61529053 44.91049438 58.52197266 43.97631836 C61.32156111 41.32536099 64.01488255 41.00845476 67.8359375 41.02929688 C71.47697427 41.82776985 73.60435179 44.13217173 76.203125 46.69335938 C78.31004405 48.84070206 78.31004405 48.84070206 82.0625 51.51757812 C82.0625 39.96757812 82.0625 28.41757813 82.0625 16.51757812 C66.2225 16.51757812 50.3825 16.51757812 34.0625 16.51757812 Z M62.6796875 63.70507812 C61.32230469 65.09726563 61.32230469 65.09726563 59.9375 66.51757812 C59.02742188 67.44570312 58.11734375 68.37382812 57.1796875 69.33007812 C56.48101562 70.05195313 55.78234375 70.77382812 55.0625 71.51757812 C56.65689227 75.43108643 58.68001086 77.97524152 62.0625 80.51757812 C65.52289307 81.12012676 68.8762 80.99080039 72.375 80.83007812 C73.77202148 80.79624023 73.77202148 80.79624023 75.19726562 80.76171875 C77.4873396 80.7029989 79.77407875 80.6209467 82.0625 80.51757812 C81.87727977 74.81933236 77.97354581 71.90868365 74.125 68.20507812 C73.47853516 67.55990234 72.83207031 66.91472656 72.16601562 66.25 C67.83483384 61.21514048 67.83483384 61.21514048 62.6796875 63.70507812 Z M22.6796875 71.66992188 C21.32230469 73.04857422 21.32230469 73.04857422 19.9375 74.45507812 C19.02742188 75.37160156 18.11734375 76.288125 17.1796875 77.23242188 C14.94922783 79.12063815 14.94922783 79.12063815 15.0625 80.51757812 C22.3225 80.51757812 29.5825 80.51757812 37.0625 80.51757812 C32.29459107 74.77841049 32.29459107 74.77841049 27.0625 69.51757812 C24.77469806 69.29414217 24.77469806 69.29414217 22.6796875 71.66992188 Z " fill="#000000" transform="translate(53.9375,103.482421875)"/>
<path d="M0 0 C36.96 0 73.92 0 112 0 C112 5.28 112 10.56 112 16 C75.04 16 38.08 16 0 16 C0 10.72 0 5.44 0 0 Z " fill="#000000" transform="translate(40,392)"/>
<path d="M0 0 C36.96 0 73.92 0 112 0 C112 5.28 112 10.56 112 16 C75.04 16 38.08 16 0 16 C0 10.72 0 5.44 0 0 Z " fill="#000000" transform="translate(296,216)"/>
<path d="M0 0 C36.96 0 73.92 0 112 0 C112 5.28 112 10.56 112 16 C75.04 16 38.08 16 0 16 C0 10.72 0 5.44 0 0 Z " fill="#000000" transform="translate(168,216)"/>
<path d="M0 0 C36.96 0 73.92 0 112 0 C112 5.28 112 10.56 112 16 C75.04 16 38.08 16 0 16 C0 10.72 0 5.44 0 0 Z " fill="#000000" transform="translate(40,216)"/>
<path d="M0 0 C26.4 0 52.8 0 80 0 C80 5.28 80 10.56 80 16 C53.6 16 27.2 16 0 16 C0 10.72 0 5.44 0 0 Z " fill="#000000" transform="translate(40,424)"/>
<path d="M0 0 C26.4 0 52.8 0 80 0 C80 5.28 80 10.56 80 16 C53.6 16 27.2 16 0 16 C0 10.72 0 5.44 0 0 Z " fill="#000000" transform="translate(296,248)"/>
<path d="M0 0 C26.4 0 52.8 0 80 0 C80 5.28 80 10.56 80 16 C53.6 16 27.2 16 0 16 C0 10.72 0 5.44 0 0 Z " fill="#000000" transform="translate(168,248)"/>
<path d="M0 0 C26.4 0 52.8 0 80 0 C80 5.28 80 10.56 80 16 C53.6 16 27.2 16 0 16 C0 10.72 0 5.44 0 0 Z " fill="#000000" transform="translate(40,248)"/>
<path d="M0 0 C5.28 0 10.56 0 16 0 C16 5.28 16 10.56 16 16 C10.72 16 5.44 16 0 16 C0 10.72 0 5.44 0 0 Z " fill="#000000" transform="translate(136,424)"/>
<path d="M0 0 C5.28 0 10.56 0 16 0 C16 5.28 16 10.56 16 16 C10.72 16 5.44 16 0 16 C0 10.72 0 5.44 0 0 Z " fill="#000000" transform="translate(392,248)"/>
<path d="M0 0 C5.28 0 10.56 0 16 0 C16 5.28 16 10.56 16 16 C10.72 16 5.44 16 0 16 C0 10.72 0 5.44 0 0 Z " fill="#000000" transform="translate(264,248)"/>
<path d="M0 0 C5.28 0 10.56 0 16 0 C16 5.28 16 10.56 16 16 C10.72 16 5.44 16 0 16 C0 10.72 0 5.44 0 0 Z " fill="#000000" transform="translate(136,248)"/>
<path d="M0 0 C5.28 0 10.56 0 16 0 C16 5.28 16 10.56 16 16 C10.72 16 5.44 16 0 16 C0 10.72 0 5.44 0 0 Z " fill="#000000" transform="translate(392,40)"/>
<path d="M0 0 C5.28 0 10.56 0 16 0 C16 5.28 16 10.56 16 16 C10.72 16 5.44 16 0 16 C0 10.72 0 5.44 0 0 Z " fill="#000000" transform="translate(360,40)"/>
<path d="M0 0 C5.28 0 10.56 0 16 0 C16 5.28 16 10.56 16 16 C10.72 16 5.44 16 0 16 C0 10.72 0 5.44 0 0 Z " fill="#000000" transform="translate(328,40)"/>
</svg>
