<?xml version="1.0" encoding="UTF-8"?>
<svg version="1.1" xmlns="http://www.w3.org/2000/svg" width="200" height="200">
<path d="M0 0 C0.7228275 -0.00453111 1.44565499 -0.00906223 2.19038635 -0.01373065 C4.6069752 -0.02636807 7.02333848 -0.02475473 9.43995667 -0.02310181 C11.1747822 -0.02908739 12.90960507 -0.03589301 14.64442444 -0.04345703 C19.35307299 -0.06111923 24.06164885 -0.06581245 28.77032733 -0.0670886 C31.7123819 -0.06851041 34.65441799 -0.07278053 37.59646797 -0.07808304 C47.86087849 -0.09658265 58.12523706 -0.10475356 68.3896637 -0.10317993 C77.95719387 -0.10197791 87.52449868 -0.12309229 97.09197181 -0.15466726 C105.30782045 -0.18081525 113.52359539 -0.19154788 121.73948532 -0.19026911 C126.64582593 -0.18975913 131.55196615 -0.19546269 136.4582653 -0.21662521 C141.0720573 -0.23598321 145.68545721 -0.23614883 150.299263 -0.22159195 C151.99155054 -0.21949985 153.68386248 -0.22422861 155.37610817 -0.23631287 C157.68853695 -0.25175517 159.99961199 -0.24246544 162.31201172 -0.22705078 C164.25186274 -0.22868508 164.25186274 -0.22868508 166.23090267 -0.2303524 C170.33794898 0.35567064 172.50174353 1.69899569 175.71949768 4.26742554 C177.62903412 7.04863983 177.96882889 9.22395808 177.94996643 12.56039429 C177.94803284 13.35510132 177.94609924 14.14980835 177.94410706 14.96859741 C177.93186096 15.78908569 177.91961487 16.60957397 177.90699768 17.45492554 C177.90603088 18.7030603 177.90603088 18.7030603 177.90504456 19.97640991 C177.85993025 26.12699296 177.85993025 26.12699296 176.71949768 27.26742554 C174.39182754 27.36503894 172.09387749 27.39740319 169.76574707 27.38768005 C169.02985322 27.38853448 168.29395937 27.3893889 167.53576571 27.39026922 C165.05133122 27.39192621 162.56696314 27.3863991 160.08253479 27.38095093 C158.30901084 27.38066908 156.53548677 27.38082675 154.76196289 27.38139343 C149.93158751 27.38168149 145.10123674 27.37578344 140.27086711 27.36881948 C135.22864451 27.3625873 130.18642141 27.36198225 125.14419556 27.36079407 C115.58899541 27.35768035 106.03380665 27.34946641 96.47861153 27.33944458 C85.60334335 27.3282847 74.72807464 27.32277331 63.85280216 27.31774914 C41.47502768 27.30728383 19.09726332 27.28968361 -3.28050232 27.26742554 C-3.84300232 25.32992554 -3.84300232 25.32992554 -4.28050232 23.26742554 C-3.28050232 22.26742554 -3.28050232 22.26742554 -0.42441463 22.14437771 C0.86517375 22.1452995 2.15476213 22.14622129 3.48342896 22.14717102 C4.55664309 22.14588938 4.55664309 22.14588938 5.65153831 22.14458185 C8.06687582 22.14292495 10.48214501 22.14845183 12.8974762 22.15390015 C14.62173969 22.154182 16.3460033 22.15402432 18.07026672 22.15345764 C22.76634915 22.15316959 27.46240627 22.15906752 32.15848279 22.1660316 C37.06056927 22.1722639 41.96265626 22.17286884 46.86474609 22.17405701 C56.15432664 22.17717069 65.44389548 22.18538457 74.73347086 22.1954065 C85.30644728 22.20656649 95.87942425 22.2120778 106.4524051 22.21710193 C128.20810934 22.22756716 149.96380237 22.24536768 171.71949768 22.26742554 C171.38949768 17.31742554 171.05949768 12.36742554 170.71949768 7.26742554 C111.31949768 7.26742554 51.91949768 7.26742554 -9.28050232 7.26742554 C-9.28050232 52.80742554 -9.28050232 98.34742554 -9.28050232 145.26742554 C50.11949768 145.26742554 109.51949768 145.26742554 170.71949768 145.26742554 C171.21449768 90.81742554 171.21449768 90.81742554 171.71949768 35.26742554 C173.69949768 34.27742554 173.69949768 34.27742554 175.71949768 33.26742554 C178.14640921 35.69433707 177.97290262 36.28350639 177.98692322 39.60562134 C177.99971817 40.97245308 177.99971817 40.97245308 178.01277161 42.36689758 C178.01141205 43.8708181 178.01141205 43.8708181 178.01002502 45.40512085 C178.01674225 46.45891434 178.02345947 47.51270782 178.03038025 48.59843445 C178.04944615 52.09752056 178.05328911 55.59641565 178.05543518 59.09555054 C178.0618583 61.52212606 178.06858628 63.94870079 178.0756073 66.37527466 C178.0876024 71.46971431 178.09128595 76.56408604 178.09010315 81.65853882 C178.0899001 88.18679095 178.11717805 94.71460704 178.15164757 101.24275589 C178.17388859 106.25792439 178.1779415 111.27298761 178.1768837 116.28820038 C178.1792448 118.69475555 178.18809683 121.1013134 178.20354843 123.50782013 C178.22314635 126.87624049 178.21739341 130.24371649 178.20533752 133.6121521 C178.21657654 134.60666885 178.22781555 135.60118561 178.23939514 136.62583923 C178.18789671 142.28890447 177.74838335 145.92622189 173.71949768 150.26742554 C169.60939197 152.40207164 166.06645937 152.52079268 161.47695923 152.52812195 C160.75821528 152.5319475 160.03947134 152.53577304 159.29894727 152.53971452 C156.89616848 152.5500141 154.49363 152.54605821 152.09083557 152.54208374 C150.36586283 152.54643189 148.64089201 152.55161538 146.91592407 152.55757141 C142.23412665 152.57096126 137.55240996 152.57154012 132.87059712 152.56900811 C128.96148384 152.56793844 125.05238689 152.57282164 121.14327711 152.57761353 C111.92103156 152.58870856 102.69882675 152.58914607 93.47657776 152.58309937 C83.9636156 152.57705796 74.45080129 152.58937485 64.93786436 152.61066943 C56.76872568 152.62828334 48.59963406 152.63428714 40.43047708 152.63103169 C35.55212188 152.62921844 30.67387214 152.63185932 25.79553413 152.64574623 C21.20805502 152.65831659 16.62080647 152.65638798 12.03333092 152.64333534 C10.35072375 152.64096833 8.66810039 152.64370874 6.98551178 152.65195847 C4.68641356 152.66241723 2.38809026 152.65433287 0.08901978 152.64164734 C-1.83976973 152.64189895 -1.83976973 152.64189895 -3.80752468 152.64215565 C-7.6892191 152.22332549 -10.02056562 151.40625668 -13.28050232 149.26742554 C-16.10572482 145.71103279 -16.65718174 143.02767985 -16.66818237 138.54344177 C-16.67808701 137.40091446 -16.68799164 136.25838715 -16.69819641 135.08123779 C-16.69369476 133.83694 -16.68919312 132.59264221 -16.68455505 131.31063843 C-16.6914183 129.99306046 -16.69828156 128.67548248 -16.70535278 127.31797791 C-16.72327798 123.71047743 -16.72211707 120.10322029 -16.7164104 116.49568868 C-16.71331752 113.4812824 -16.71941211 110.4669228 -16.72544914 107.45252317 C-16.73949073 100.33975899 -16.73793625 93.22711493 -16.72654724 86.11434937 C-16.71506678 78.78256986 -16.72914105 71.45115618 -16.75594372 64.11942488 C-16.77811307 57.81861933 -16.78473532 51.51792851 -16.7788673 45.21708673 C-16.77549939 41.45651039 -16.77790151 37.69616853 -16.79511833 33.93562508 C-16.81348308 29.74138409 -16.79938778 25.54785315 -16.7822113 21.35360718 C-16.79671326 19.49019684 -16.79671326 19.49019684 -16.81150818 17.58914185 C-16.71849256 6.7559416 -16.71849256 6.7559416 -12.28050232 2.26742554 C-8.15191692 0.13951042 -4.6050129 0.01193834 0 0 Z " fill="#000000" transform="translate(19.280502319335938,23.732574462890625)"/>
<path d="M0 0 C3.13180809 1.62390049 5.24339744 3.00266026 7.375 5.8125 C8.51614886 9.80652099 8.38614511 13.6484921 7.25 17.625 C6.71508598 20.21672725 6.71508598 20.21672725 8.875 22.6875 C9.57625 23.450625 10.2775 24.21375 11 25 C12.40603618 27.81207235 12.24557505 30.24009466 12.3125 33.375 C12.36857422 35.08816406 12.36857422 35.08816406 12.42578125 36.8359375 C11.90401354 40.71329389 11.02441558 41.60430341 8 44 C5.40625 44.51757812 5.40625 44.51757812 2.5 44.53125 C1.448125 44.53640625 0.39625 44.5415625 -0.6875 44.546875 C-1.780625 44.53140625 -2.87375 44.5159375 -4 44.5 C-5.093125 44.51546875 -6.18625 44.5309375 -7.3125 44.546875 C-8.364375 44.54171875 -9.41625 44.5365625 -10.5 44.53125 C-11.4590625 44.52673828 -12.418125 44.52222656 -13.40625 44.51757812 C-16.72999767 43.85433028 -17.92679412 42.6320805 -20 40 C-21.11926107 33.67220909 -20.68709442 27.3888303 -17 22 C-16.34 21.34 -15.68 20.68 -15 20 C-15.09503663 17.52257005 -15.09503663 17.52257005 -15.5625 14.75 C-16.08814081 9.91157136 -16.02869847 7.03826462 -13 3 C-9.11359954 -0.3312004 -4.95986962 -0.88326445 0 0 Z M-9 8 C-9.33 8.33 -9.66 8.66 -10 9 C-9.60891226 13.14553001 -8.95786441 16.34531977 -7 20 C-7 20.99 -7 21.98 -7 23 C-7.78375 23.268125 -8.5675 23.53625 -9.375 23.8125 C-12.28114923 24.84814432 -12.28114923 24.84814432 -14 28 C-14.24150773 30.51584891 -14.24150773 30.51584891 -14.125 33.1875 C-14.10695313 34.08855469 -14.08890625 34.98960938 -14.0703125 35.91796875 C-14.04710937 36.60503906 -14.02390625 37.29210937 -14 38 C-10.68751813 38.02888146 -7.37506833 38.04675799 -4.0625 38.0625 C-2.64420898 38.07506836 -2.64420898 38.07506836 -1.19726562 38.08789062 C-0.29814453 38.09111328 0.60097656 38.09433594 1.52734375 38.09765625 C2.35999756 38.10289307 3.19265137 38.10812988 4.05053711 38.11352539 C6.00516798 38.21643292 6.00516798 38.21643292 7 37 C7.14238005 32.07771832 6.69478133 28.83373759 3.5 25 C2.675 24.34 1.85 23.68 1 23 C0 22 0 22 -0.1875 19.625 C0 17 0 17 2 14 C2.58350505 11.54290625 2.58350505 11.54290625 2 9 C-2.87677794 4.37331323 -3.52876458 4.58047786 -9 8 Z " fill="#000000" transform="translate(58,67)"/>
<path d="M0 0 C0.99 0.33 1.98 0.66 3 1 C3 35.32 3 69.64 3 105 C1.02 105.495 1.02 105.495 -1 106 C-2 105 -2 105 -2.12304783 103.25274563 C-2.12212604 102.48673566 -2.12120424 101.72072569 -2.12025452 100.9315033 C-2.12162918 100.05505661 -2.12300385 99.17860992 -2.12442017 98.27560425 C-2.12082489 97.30672272 -2.11722961 96.33784119 -2.11352539 95.33959961 C-2.11367142 94.32508224 -2.11381744 93.31056488 -2.1139679 92.26530457 C-2.11326829 88.89429627 -2.10547368 85.52334246 -2.09765625 82.15234375 C-2.09579224 79.82206757 -2.09436826 77.491791 -2.09336853 75.16151428 C-2.08954202 69.01462735 -2.0797106 62.86776387 -2.06866455 56.72088623 C-2.05845329 50.45390134 -2.05387152 44.18691268 -2.04882812 37.91992188 C-2.03808845 25.61327092 -2.02101044 13.30663741 -2 1 C-1.34 0.67 -0.68 0.34 0 0 Z " fill="#000000" transform="translate(94,57)"/>
<path d="M0 0 C20.46 0 40.92 0 62 0 C62.495 2.475 62.495 2.475 63 5 C61.23483556 6.76516444 58.71061723 6.1276249 56.31860352 6.12939453 C54.49650108 6.13412277 54.49650108 6.13412277 52.6375885 6.13894653 C51.30136072 6.13715655 49.96513326 6.13510555 48.62890625 6.1328125 C47.26749148 6.13348567 45.90607683 6.1344558 44.54466248 6.13571167 C41.68723408 6.13718854 38.82983689 6.13503476 35.97241211 6.13037109 C32.30581199 6.12467919 28.63928514 6.12794943 24.97268772 6.13394356 C22.15975897 6.13755406 19.34684765 6.13640823 16.53391838 6.13381577 C15.18189421 6.13314757 13.82986848 6.13397118 12.47784615 6.13629532 C10.58882807 6.1388292 8.69980447 6.13428371 6.81079102 6.12939453 C5.73459 6.12859894 4.65838898 6.12780334 3.54957581 6.12698364 C1 6 1 6 -1 5 C-0.67 3.35 -0.34 1.7 0 0 Z " fill="#000000" transform="translate(110,93)"/>
<path d="M0 0 C1.05541992 0.00142502 2.11083984 0.00285004 3.19824219 0.00431824 C4.9902002 -0.00029671 4.9902002 -0.00029671 6.81835938 -0.00500488 C8.11418945 0.00218063 9.41001953 0.00936615 10.74511719 0.01676941 C12.08268184 0.01796129 13.42024734 0.01841436 14.7578125 0.01815796 C17.56222772 0.01972306 20.36651532 0.0280145 23.17089844 0.04142761 C26.76909828 0.05841753 30.36715781 0.06224195 33.96539307 0.06148243 C36.7277155 0.06175412 39.49000714 0.06723514 42.25231934 0.07448387 C44.22550074 0.0792223 46.19868863 0.08094708 48.171875 0.0826416 C49.36651367 0.08902145 50.56115234 0.09540131 51.79199219 0.10197449 C52.84741211 0.10578629 53.90283203 0.10959808 54.99023438 0.11352539 C57.49511719 0.24723816 57.49511719 0.24723816 59.49511719 1.24723816 C59.16511719 2.89723816 58.83511719 4.54723816 58.49511719 6.24723816 C38.03511719 6.24723816 17.57511719 6.24723816 -3.50488281 6.24723816 C-3.83488281 4.92723816 -4.16488281 3.60723816 -4.50488281 2.24723816 C-2.50488281 0.24723816 -2.50488281 0.24723816 0 0 Z " fill="#000000" transform="translate(113.5048828125,137.7527618408203)"/>
<path d="M0 0 C2.06277466 -0.36076355 2.06277466 -0.36076355 4.63330078 -0.34057617 C6.07456833 -0.34023628 6.07456833 -0.34023628 7.54495239 -0.33988953 C8.58457123 -0.32440567 9.62419006 -0.30892181 10.6953125 -0.29296875 C11.75789276 -0.28872391 12.82047302 -0.28447906 13.91525269 -0.28010559 C17.31875646 -0.26327389 20.72167433 -0.22561303 24.125 -0.1875 C26.42837688 -0.17245899 28.73176302 -0.15876958 31.03515625 -0.14648438 C36.69030505 -0.11335574 42.34511068 -0.06311197 48 0 C49.0625 1.875 49.0625 1.875 50 4 C49.67 4.66 49.34 5.32 49 6 C42.05833922 6.0758805 35.11678482 6.12852796 28.17480469 6.16479492 C25.8118083 6.179909 23.44884009 6.20040076 21.0859375 6.22631836 C17.69524191 6.26258629 14.30491621 6.27969999 10.9140625 6.29296875 C9.85256989 6.30845261 8.79107727 6.32393646 7.69741821 6.33988953 C6.22611954 6.34022942 6.22611954 6.34022942 4.72509766 6.34057617 C3.42603989 6.35056892 3.42603989 6.35056892 2.10073853 6.36076355 C1.06087296 6.18218559 1.06087296 6.18218559 0 6 C-0.66 5.01 -1.32 4.02 -2 3 C-1.34 2.01 -0.68 1.02 0 0 Z " fill="#000000" transform="translate(30,142)"/>
<path d="M0 0 C16.17 0 32.34 0 49 0 C49.495 1.98 49.495 1.98 50 4 C49 5 49 5 47.01951599 5.12025452 C46.15125687 5.11803391 45.28299774 5.11581329 44.38842773 5.11352539 C43.40748642 5.11344986 42.4265451 5.11337433 41.4158783 5.11329651 C40.3492244 5.10813522 39.2825705 5.10297394 38.18359375 5.09765625 C36.55430687 5.09553383 36.55430687 5.09553383 34.8921051 5.09336853 C31.40720925 5.08775048 27.92237658 5.07519492 24.4375 5.0625 C22.08138113 5.05748733 19.72526126 5.05292402 17.36914062 5.04882812 C11.57940536 5.03777519 5.78970719 5.02101951 0 5 C0 3.35 0 1.7 0 0 Z " fill="#000000" transform="translate(30,124)"/>
<path d="M0 0 C0.83587646 -0.00095673 1.67175293 -0.00191345 2.53295898 -0.00289917 C4.30159582 -0.00358018 6.07023515 -0.00173141 7.83886719 0.00244141 C10.55148921 0.00779079 13.26394565 0.00249375 15.9765625 -0.00390625 C17.6927087 -0.00324545 19.4088548 -0.00196426 21.125 0 C22.3469104 -0.00303635 22.3469104 -0.00303635 23.59350586 -0.00613403 C29.33258072 0.01785286 29.33258072 0.01785286 31.5625 1.1328125 C31.2325 2.7828125 30.9025 4.4328125 30.5625 6.1328125 C17.3625 6.1328125 4.1625 6.1328125 -9.4375 6.1328125 C-9.7675 4.4828125 -10.0975 2.8328125 -10.4375 1.1328125 C-7.17636087 -0.49775707 -3.58270683 -0.00890273 0 0 Z " fill="#000000" transform="translate(141.4375,69.8671875)"/>
<path d="M0 0 C13.2 0 26.4 0 40 0 C40.495 2.475 40.495 2.475 41 5 C27.14 5 13.28 5 -1 5 C-0.67 3.35 -0.34 1.7 0 0 Z " fill="#000000" transform="translate(132,116)"/>
<path d="M0 0 C1.32 0.66 2.64 1.32 4 2 C3.67 3.32 3.34 4.64 3 6 C1.35 5.67 -0.3 5.34 -2 5 C-1.125 1.125 -1.125 1.125 0 0 Z " fill="#000000" transform="translate(111,70)"/>
<path d="M0 0 C1.65 0.33 3.3 0.66 5 1 C4.67 2.32 4.34 3.64 4 5 C2.35 4.67 0.7 4.34 -1 4 C-0.67 2.68 -0.34 1.36 0 0 Z " fill="#000000" transform="translate(110,116)"/>
<path d="M0 0 C1.98 0.495 1.98 0.495 4 1 C3.67 2.65 3.34 4.3 3 6 C1.68 5.67 0.36 5.34 -1 5 C-0.67 3.35 -0.34 1.7 0 0 Z " fill="#000000" transform="translate(51,35)"/>
<path d="M0 0 C1.98 0.495 1.98 0.495 4 1 C3.67 2.65 3.34 4.3 3 6 C1.68 5.67 0.36 5.34 -1 5 C-0.67 3.35 -0.34 1.7 0 0 Z " fill="#000000" transform="translate(36,35)"/>
<path d="M0 0 C1.98 0.495 1.98 0.495 4 1 C3.67 2.65 3.34 4.3 3 6 C1.68 5.67 0.36 5.34 -1 5 C-0.67 3.35 -0.34 1.7 0 0 Z " fill="#000000" transform="translate(21,35)"/>
</svg>
